<svg data-v-0dd9719b="" version="1.0" xmlns="http://www.w3.org/2000/svg" xmlns:xlink="http://www.w3.org/1999/xlink" width="100%" height="100%" viewBox="0 0 340.000000 250.000000" preserveAspectRatio="xMidYMid meet" color-interpolation-filters="sRGB" style="margin: auto;"> <rect data-v-0dd9719b="" x="0" y="0" width="100%" height="100%" fill="#ffffff" fill-opacity="1" class="background"></rect> <rect data-v-0dd9719b="" x="0" y="0" width="100%" height="100%" fill="url(#watermark)" fill-opacity="1" class="watermarklayer"></rect> <g data-v-0dd9719b="" fill="#bf4063" class="icon-text-wrapper icon-svg-group iconsvg" transform="translate(47.57940673828125,95)"><g class="iconsvg-imagesvg" transform="translate(0,0)"><g><rect fill="#bf4063" fill-opacity="0" stroke-width="2" x="0" y="0" width="60" height="60" class="image-rect"></rect> <svg filter="url(#colors91598930)" x="0" y="0" width="60" height="60" filtersec="colorsf2499604356" class="image-svg-svg primary" style="overflow: visible;"><svg xmlns="http://www.w3.org/2000/svg" viewBox="0 0 106.8 106.8"><path d="M104.8 53.4c0 28.4-23 51.4-51.4 51.4S2 81.8 2 53.4 25 2 53.4 2s51.4 23 51.4 51.4zM12 23v30.5c0 22.9 18.5 41.4 41.4 41.4s41.4-18.5 41.4-41.4V23M22 12.7v40.7c0 17.4 14.1 31.4 31.4 31.4s31.4-14.1 31.4-31.4V12.7M32 6.7v46.8c0 11.8 9.6 21.4 21.4 21.4 11.8 0 21.4-9.6 21.4-21.4V6.7M42 3.3v50.1c0 6.3 5.1 11.4 11.4 11.4s11.4-5.1 11.4-11.4V3.3M53.4 53.4V2" fill="none" stroke="#202121" stroke-width="4" stroke-miterlimit="10"></path></svg></svg> <defs><filter id="colors91598930"><feColorMatrix type="matrix" values="0 0 0 0 0.203125  0 0 0 0 0.28125  0 0 0 0 0.484375  0 0 0 1 0" class="icon-fecolormatrix"></feColorMatrix></filter> <filter id="colorsf2499604356"><feColorMatrix type="matrix" values="0 0 0 0 0.99609375  0 0 0 0 0.99609375  0 0 0 0 0.99609375  0 0 0 1 0" class="icon-fecolormatrix"></feColorMatrix></filter> <filter id="colorsb3213134332"><feColorMatrix type="matrix" values="0 0 0 0 0  0 0 0 0 0  0 0 0 0 0  0 0 0 1 0" class="icon-fecolormatrix"></feColorMatrix></filter></defs></g></g> <g transform="translate(67,17.16729164123535)"><g data-gra="path-name" fill-rule="" class="tp-name iconsvg-namesvg"><g transform="scale(1)"><g><path d="M16.46-0.22L5.62-0.22Q5.4-0.22 5.39-0.42 5.37-0.62 5.56-0.69L5.56-0.69Q5.68-0.75 6.04-0.81 6.4-0.87 6.82-0.92 7.25-0.97 7.64-1 8.03-1.03 8.18-1.03L8.18-1.03Q8.53-1.03 8.53-1.37L8.53-1.37 8.53-21.96Q8.53-22.27 8.21-22.27L8.21-22.27 4.28-22.27Q4.12-22.27 4-22.14 3.87-22.02 3.81-21.93L3.81-21.93Q3.69-21.74 3.5-21.07 3.31-20.4 3.11-19.61 2.9-18.83 2.7-18.08 2.5-17.33 2.34-17.02L2.34-17.02Q2.22-16.8 1.78-16.83 1.34-16.87 1.12-16.87L1.12-16.87Q0.81-16.87 0.81-17.18L0.81-17.18Q0.81-17.52 0.83-17.82 0.84-18.12 0.87-18.46L0.87-18.46Q0.94-19.55 0.98-20.63 1.03-21.71 1.03-22.8L1.03-22.8Q1.03-23.11 1.34-23.11L1.34-23.11 20.93-23.11Q21.24-23.11 21.24-22.8L21.24-22.8 21.24-17.18Q21.24-16.87 20.93-16.87L20.93-16.87Q20.8-16.87 20.61-16.85 20.43-16.83 20.24-16.83 20.05-16.83 19.9-16.88 19.74-16.93 19.71-17.08L19.71-17.08Q19.61-17.37 19.41-18.12 19.21-18.87 18.97-19.68 18.74-20.49 18.55-21.16 18.37-21.83 18.27-21.93L18.27-21.93Q18.21-21.99 18.04-22.13 17.87-22.27 17.77-22.27L17.77-22.27 13.84-22.27Q13.52-22.27 13.52-21.96L13.52-21.96 13.52-1.37Q13.52-1.25 13.63-1.14 13.74-1.03 13.87-1.03L13.87-1.03Q14.02-1.03 14.41-1 14.8-0.97 15.23-0.92 15.65-0.87 16.02-0.81 16.4-0.75 16.49-0.69L16.49-0.69Q16.65-0.62 16.66-0.42 16.68-0.22 16.46-0.22L16.46-0.22ZM33.05-0.62L33.05-0.62Q33.11-0.5 33.14-0.36 33.17-0.22 32.95-0.22L32.95-0.22 23.8-0.22Q23.55-0.22 23.55-0.47L23.55-0.47Q23.55-0.72 23.85-0.73 24.14-0.75 24.49-0.72 24.83-0.69 25.13-0.72 25.42-0.75 25.42-1.03L25.42-1.03 25.42-14.59Q25.42-14.9 25.08-14.91 24.74-14.93 24.32-14.9 23.89-14.87 23.57-14.87 23.24-14.87 23.3-15.12L23.3-15.12Q23.36-15.24 23.43-15.27L23.43-15.27Q23.46-15.37 23.61-15.43L23.61-15.43 29.14-17.08Q29.3-17.15 29.53-17.1 29.77-17.05 29.86-16.9L29.86-16.9Q29.95-16.74 30-16.3 30.05-15.87 30.08-15.32 30.11-14.77 30.12-14.27 30.14-13.77 30.2-13.56L30.2-13.56Q30.23-13.4 30.25-13.37 30.27-13.34 30.42-13.31L30.42-13.31Q30.73-13.27 31.14-13.87 31.55-14.46 32.12-15.18 32.7-15.9 33.5-16.51 34.29-17.12 35.39-17.12L35.39-17.12Q35.89-17.12 36.39-17.01 36.89-16.9 37.28-16.65 37.67-16.4 37.9-15.99 38.14-15.59 38.14-14.99L38.14-14.99Q38.14-12.9 36.04-12.9L36.04-12.9Q35.61-12.9 35.26-12.96 34.92-13.02 34.58-13.27L34.58-13.27Q34.48-13.37 34.28-13.57 34.08-13.77 33.86-14.01 33.64-14.24 33.47-14.43 33.3-14.62 33.23-14.62L33.23-14.62Q32.98-14.68 32.76-14.59L32.76-14.59Q32.3-14.43 31.83-13.84 31.36-13.24 31-12.49 30.64-11.74 30.42-10.99 30.2-10.24 30.2-9.78L30.2-9.78 30.2-1.37Q30.2-1.22 30.42-0.97 30.64-0.72 30.8-0.72L30.8-0.72 32.92-0.72 33.05-0.62ZM51.82 0.19L51.82 0.19Q51.44 0.06 51.04-0.22 50.63-0.5 50.29-0.87 49.94-1.25 49.71-1.67 49.47-2.09 49.47-2.5L49.47-2.5 49.47-3.12 49.57-9.25Q49.57-9.5 49.32-9.59L49.32-9.59Q49.13-9.65 48.85-9.62 48.57-9.59 48.27-9.5 47.98-9.4 47.69-9.31 47.41-9.21 47.26-9.12L47.26-9.12Q45.35-8.18 44.54-6.18L44.54-6.18Q44.23-5.47 44.15-4.64 44.07-3.81 44.31-3.09 44.54-2.37 45.1-1.91 45.66-1.44 46.66-1.44L46.66-1.44Q46.79-1.44 47.15-1.55 47.51-1.66 47.85-1.73 48.19-1.81 48.4-1.78 48.6-1.75 48.44-1.44L48.44-1.44Q48.04-0.66 47.08-0.27 46.13 0.12 45.02 0.17 43.91 0.22 42.87-0.02 41.82-0.25 41.2-0.75L41.2-0.75Q40.48-1.31 40.23-2.09 39.98-2.87 39.98-3.75L39.98-3.75Q39.98-5.12 40.67-6.11 41.35-7.09 42.42-7.78 43.48-8.46 44.71-8.87 45.94-9.28 47.07-9.53L47.07-9.53Q47.26-9.56 47.57-9.6 47.88-9.65 48.22-9.71 48.57-9.78 48.87-9.84 49.16-9.9 49.29-9.96L49.29-9.96Q49.63-10.12 49.61-10.48 49.6-10.84 49.6-11.12L49.6-11.12Q49.6-11.65 49.6-12.27 49.6-12.9 49.54-13.54 49.47-14.18 49.3-14.76 49.13-15.34 48.79-15.8L48.79-15.8Q48.32-16.46 47.51-16.46L47.51-16.46Q47.32-16.46 46.93-16.48 46.54-16.49 46.13-16.49 45.73-16.49 45.38-16.46 45.04-16.43 44.91-16.37L44.91-16.37Q44.79-16.3 44.76-15.91 44.73-15.52 44.68-14.96 44.63-14.4 44.52-13.79 44.41-13.18 44.16-12.65 43.91-12.12 43.46-11.78 43.01-11.43 42.29-11.43L42.29-11.43Q41.48-11.43 41.06-11.82 40.64-12.21 40.56-12.79 40.48-13.37 40.7-13.99 40.92-14.62 41.35-15.09L41.35-15.09Q41.95-15.71 42.71-16.12 43.48-16.52 44.35-16.74 45.23-16.96 46.12-17.04 47.01-17.12 47.82-17.12L47.82-17.12Q48.26-17.12 48.69-17.1 49.13-17.08 49.57-17.08L49.57-17.08Q50.5-17.08 51.33-16.68 52.16-16.27 52.77-15.6 53.38-14.93 53.72-14.06 54.07-13.18 54.07-12.27L54.07-12.27 54.07-1.87Q54.07-1.66 54.21-1.51 54.35-1.37 54.5-1.28L54.5-1.28Q54.78-1.09 54.99-1.05 55.19-1 55.36-1.03 55.53-1.06 55.72-1.16 55.91-1.25 56.19-1.34L56.19-1.34Q56.44-1.44 56.55-1.44 56.66-1.44 56.6-1.09L56.6-1.09Q56.56-0.94 56.47-0.81 56.38-0.69 56.28-0.59L56.28-0.59Q55.91-0.22 55.36-0.05 54.82 0.12 54.22 0.19 53.63 0.25 53.03 0.23 52.44 0.22 51.94 0.22L51.94 0.22Q51.85 0.22 51.82 0.19ZM74.65-25.36L74.65-25.36Q74.8-25.49 74.98-25.38 75.15-25.27 75.15-25.08L75.15-25.08 75.15-1.03Q75.15-0.72 75.45-0.7 75.74-0.69 76.09-0.72 76.43-0.75 76.73-0.73 77.02-0.72 77.02-0.41L77.02-0.41Q77.02-0.22 76.83-0.19L76.83-0.19Q76.71-0.12 75.85-0.05 74.99 0.03 73.98 0.09 72.96 0.16 72.1 0.2 71.24 0.25 71.09 0.22L71.09 0.22Q70.81 0.19 70.67 0 70.53-0.19 70.48-0.44 70.43-0.69 70.43-0.95 70.43-1.22 70.43-1.44L70.43-1.44Q70.43-1.66 70.4-1.86 70.37-2.06 70.37-2.28L70.37-2.28 70.37-14.59Q70.37-14.87 70.07-15.02 69.78-15.18 69.4-15.27 69.03-15.37 68.64-15.4 68.25-15.43 68.06-15.43L68.06-15.43Q67.43-15.43 66.82-15.29 66.22-15.15 65.68-14.77L65.68-14.77Q64.97-14.27 64.53-13.52 64.09-12.77 63.86-11.92 63.62-11.06 63.55-10.15 63.47-9.25 63.47-8.43L63.47-8.43Q63.47-7.62 63.55-6.75 63.62-5.87 63.84-5.03 64.06-4.19 64.48-3.42 64.9-2.65 65.56-2.12L65.56-2.12Q66.28-1.53 67.07-1.48 67.87-1.44 68.75-1.5L68.75-1.5Q69.28-1.56 69.23-1.34 69.18-1.12 68.9-0.78L68.9-0.78Q68.78-0.66 68.59-0.53L68.59-0.53Q68.25-0.25 67.87-0.02 67.5 0.22 67.03 0.22L67.03 0.22 63.9 0.22Q62.47 0.22 61.45-0.69 60.44-1.59 59.78-2.9 59.13-4.22 58.81-5.7 58.5-7.18 58.5-8.34L58.5-8.34Q58.5-10.03 58.97-11.6 59.44-13.18 60.36-14.4 61.28-15.62 62.67-16.37 64.06-17.12 65.9-17.12L65.9-17.12Q66.31-17.12 66.68-17.13 67.06-17.15 67.46-17.08L67.46-17.08Q68.09-17.02 68.7-16.59 69.31-16.15 69.81-15.77L69.81-15.77Q69.9-15.71 70.03-15.62 70.15-15.52 70.28-15.46L70.28-15.46Q70.53-15.34 70.73-15.38 70.93-15.43 70.99-15.71L70.99-15.71Q71.03-15.87 71.01-16.19 70.99-16.52 70.98-16.88 70.96-17.24 70.92-17.6 70.87-17.96 70.87-18.15L70.87-18.15Q70.78-19.43 70.68-20.69 70.59-21.96 70.59-23.24L70.59-23.24Q70.59-23.3 70.53-23.43L70.53-23.43Q70.4-23.64 70.21-23.64L70.21-23.64 68.43-23.64Q68.34-23.64 68.25-23.71 68.15-23.77 68.11-23.86 68.06-23.96 68.07-24.03 68.09-24.11 68.21-24.14L68.21-24.14 74.65-25.36ZM90.73-10.78L90.73-10.78Q90.77-10.81 90.77-10.9L90.77-10.9Q90.77-11.62 90.8-12.29 90.83-12.96 90.67-13.68L90.67-13.68Q90.42-14.87 89.77-15.66 89.11-16.46 87.8-16.46L87.8-16.46Q86.77-16.46 86.08-15.71L86.08-15.71Q85.42-15.05 85.07-14.13 84.71-13.21 84.53-12.21 84.36-11.21 84.33-10.21 84.3-9.21 84.3-8.34L84.3-8.34Q84.3-7.06 84.69-5.84 85.08-4.62 85.83-3.62L85.83-3.62Q86.42-2.84 87.22-2.31 88.02-1.78 88.91-1.56 89.8-1.34 90.75-1.44 91.7-1.53 92.58-2L92.58-2Q93.01-2.25 93.39-2.53 93.76-2.81 94.2-3.06L94.2-3.06Q94.45-3.22 94.58-3.23 94.7-3.25 94.67-2.84L94.67-2.84Q94.64-2.53 94.4-2.2 94.17-1.87 93.95-1.66L93.95-1.66Q93.14-0.91 91.95-0.45 90.77 0 89.45 0.14 88.14 0.28 86.86 0.14 85.58 0 84.58-0.41L84.58-0.41Q82.58-1.22 81.38-2.76 80.18-4.31 79.74-6.17 79.3-8.03 79.63-9.96 79.96-11.9 81.02-13.48 82.08-15.05 83.88-16.07 85.67-17.08 88.17-17.08L88.17-17.08Q89.8-17.08 91.22-16.57 92.64-16.05 93.64-14.71L93.64-14.71Q94.01-14.21 94.33-13.49 94.64-12.77 94.84-11.99 95.04-11.21 95.15-10.43 95.26-9.65 95.2-9.06L95.2-9.06Q95.17-8.9 95.12-8.82 95.08-8.75 94.89-8.75L94.89-8.75 85.55-8.75Q85.36-8.75 85.25-8.84 85.14-8.93 85.14-9.06 85.14-9.18 85.25-9.28 85.36-9.37 85.64-9.37L85.64-9.37 88.89-9.37Q89.64-9.37 90.05-9.74 90.45-10.12 90.73-10.78ZM103.91-0.03L103.73-0.12Q103.54-0.44 103.48-0.77 103.41-1.09 103.26-1.44L103.26-1.44 103.23-1.5Q102.23-3.94 101.42-6.42 100.6-8.9 99.7-11.34L99.7-11.34Q99.32-12.34 99.03-13.4 98.73-14.46 98.23-15.4L98.23-15.4Q98.04-15.8 97.78-15.91 97.51-16.02 97.25-16.04 96.98-16.05 96.76-16.09 96.54-16.12 96.42-16.34L96.42-16.34Q96.36-16.46 96.45-16.55L96.45-16.55Q96.54-16.65 96.7-16.65L96.7-16.65 104.85-16.65Q105.1-16.65 105.1-16.4L105.1-16.4Q105.1-16.12 104.76-16.12 104.41-16.12 103.99-16.15 103.57-16.18 103.23-16.16 102.88-16.15 102.88-15.84L102.88-15.84Q102.88-15.05 103.06-14.26 103.23-13.46 103.48-12.7 103.73-11.93 104.02-11.17 104.32-10.4 104.57-9.68L104.57-9.68Q104.88-8.78 105.21-7.96 105.54-7.15 105.79-6.32 106.04-5.5 106.21-4.64 106.38-3.78 106.38-2.81L106.38-2.81Q106.38-2.65 106.29-2.2 106.19-1.75 106.07-1.26 105.94-0.78 105.8-0.41 105.66-0.03 105.54-0.03L105.54-0.03 103.91-0.03ZM115.28-16.15L113.44-16.15Q113.32-16.15 113.25-15.93L113.25-15.93Q113.1-15.37 113.3-14.49 113.5-13.62 113.86-12.68 114.22-11.74 114.6-10.87 114.97-9.99 115.22-9.46L115.22-9.46Q115.6-8.56 115.91-7.64 116.22-6.72 116.53-5.81L116.53-5.81Q116.75-5.09 116.92-4.56 117.1-4.03 117.17-3.55 117.25-3.06 117.2-2.53 117.16-2 116.94-1.25L116.94-1.25Q116.91-1.12 116.83-0.92 116.75-0.72 116.66-0.52 116.56-0.31 116.44-0.16 116.31 0 116.16 0L116.16 0 114.82 0Q114.72 0 114.61-0.09 114.5-0.19 114.44-0.28L114.44-0.28Q114.38-0.44 114.32-0.66 114.25-0.87 114.19-1.03L114.19-1.03Q114.03-1.47 113.89-1.87 113.75-2.28 113.6-2.72L113.6-2.72Q112.79-5.12 111.93-7.45 111.07-9.78 110.54-12.27L110.54-12.27Q110.5-12.37 110.47-12.52 110.44-12.68 110.38-12.82 110.32-12.96 110.22-13.04 110.13-13.12 110.01-12.99L110.01-12.99Q109.88-12.87 109.6-12.07 109.32-11.28 109.01-10.31 108.69-9.34 108.41-8.43 108.13-7.53 108.01-7.21L108.01-7.21Q107.85-6.78 107.71-6.34 107.57-5.9 107.41-5.47L107.41-5.47Q107.41-5.43 107.32-5.28 107.23-5.12 107.13-4.97 107.04-4.81 106.96-4.76 106.88-4.72 106.91-4.9L106.91-4.9Q107.01-5.43 107.21-6.17 107.41-6.9 107.66-7.67 107.91-8.43 108.19-9.17 108.47-9.9 108.66-10.43L108.66-10.43Q109.1-11.65 109.52-12.87 109.94-14.09 110.29-15.34L110.29-15.34Q110.35-15.49 110.33-15.59 110.32-15.68 110.32-15.84L110.32-15.84Q110.32-16.15 109.96-16.16 109.6-16.18 109.18-16.15 108.76-16.12 108.4-16.12 108.04-16.12 108.04-16.4L108.04-16.4Q108.04-16.65 108.29-16.65L108.29-16.65 115.28-16.65Q115.53-16.65 115.53-16.4 115.53-16.15 115.28-16.15L115.28-16.15ZM118.28-16.65L123.65-16.65Q123.84-16.65 123.84-16.46L123.84-16.46Q123.84-16.3 123.65-16.21L123.65-16.21Q122.9-15.93 122.39-15.66 121.87-15.4 121.37-14.71L121.37-14.71Q121.34-14.65 121.31-14.62 121.28-14.59 121.25-14.52L121.25-14.52Q121-13.87 120.81-13.18 120.62-12.49 120.41-11.84L120.41-11.84Q119.94-10.4 119.48-8.98 119.03-7.56 118.53-6.12L118.53-6.12Q118.38-5.72 118.22-5.43L118.22-5.43Q118.09-5.22 118.03-5.18 117.97-5.15 117.94-5.22 117.91-5.28 117.92-5.4 117.94-5.53 117.94-5.62L117.94-5.62Q118-6.12 118.14-6.57 118.28-7.03 118.44-7.5L118.44-7.5Q118.84-8.81 119.2-10.07 119.56-11.34 119.94-12.65L119.94-12.65Q120-12.81 120.12-13.2 120.25-13.59 120.39-14.01 120.53-14.43 120.64-14.79 120.75-15.15 120.75-15.27L120.75-15.27Q120.78-15.4 120.73-15.77 120.69-16.15 120.53-16.15L120.53-16.15 118.28-16.15Q118.03-16.15 118.03-16.4 118.03-16.65 118.28-16.65L118.28-16.65ZM137.74 0.19L137.74 0.19Q137.37 0.06 136.96-0.22 136.55-0.5 136.21-0.87 135.87-1.25 135.63-1.67 135.4-2.09 135.4-2.5L135.4-2.5 135.4-3.12 135.49-9.25Q135.49-9.5 135.24-9.59L135.24-9.59Q135.05-9.65 134.77-9.62 134.49-9.59 134.2-9.5 133.9-9.4 133.62-9.31 133.34-9.21 133.18-9.12L133.18-9.12Q131.28-8.18 130.46-6.18L130.46-6.18Q130.15-5.47 130.07-4.64 129.99-3.81 130.23-3.09 130.46-2.37 131.03-1.91 131.59-1.44 132.59-1.44L132.59-1.44Q132.71-1.44 133.07-1.55 133.43-1.66 133.77-1.73 134.12-1.81 134.32-1.78 134.52-1.75 134.37-1.44L134.37-1.44Q133.96-0.66 133.01-0.27 132.06 0.12 130.95 0.17 129.84 0.22 128.79-0.02 127.75-0.25 127.12-0.75L127.12-0.75Q126.4-1.31 126.15-2.09 125.9-2.87 125.9-3.75L125.9-3.75Q125.9-5.12 126.59-6.11 127.28-7.09 128.34-7.78 129.4-8.46 130.64-8.87 131.87-9.28 132.99-9.53L132.99-9.53Q133.18-9.56 133.49-9.6 133.81-9.65 134.15-9.71 134.49-9.78 134.79-9.84 135.09-9.9 135.21-9.96L135.21-9.96Q135.55-10.12 135.54-10.48 135.52-10.84 135.52-11.12L135.52-11.12Q135.52-11.65 135.52-12.27 135.52-12.9 135.46-13.54 135.4-14.18 135.23-14.76 135.05-15.34 134.71-15.8L134.71-15.8Q134.24-16.46 133.43-16.46L133.43-16.46Q133.24-16.46 132.85-16.48 132.46-16.49 132.06-16.49 131.65-16.49 131.31-16.46 130.96-16.43 130.84-16.37L130.84-16.37Q130.71-16.3 130.68-15.91 130.65-15.52 130.6-14.96 130.56-14.4 130.45-13.79 130.34-13.18 130.09-12.65 129.84-12.12 129.39-11.78 128.93-11.43 128.21-11.43L128.21-11.43Q127.4-11.43 126.98-11.82 126.56-12.21 126.48-12.79 126.4-13.37 126.62-13.99 126.84-14.62 127.28-15.09L127.28-15.09Q127.87-15.71 128.64-16.12 129.4-16.52 130.28-16.74 131.15-16.96 132.04-17.04 132.93-17.12 133.74-17.12L133.74-17.12Q134.18-17.12 134.62-17.1 135.05-17.08 135.49-17.08L135.49-17.08Q136.43-17.08 137.26-16.68 138.08-16.27 138.69-15.6 139.3-14.93 139.65-14.06 139.99-13.18 139.99-12.27L139.99-12.27 139.99-1.87Q139.99-1.66 140.13-1.51 140.27-1.37 140.43-1.28L140.43-1.28Q140.71-1.09 140.91-1.05 141.11-1 141.29-1.03 141.46-1.06 141.64-1.16 141.83-1.25 142.11-1.34L142.11-1.34Q142.36-1.44 142.47-1.44 142.58-1.44 142.52-1.09L142.52-1.09Q142.49-0.94 142.39-0.81 142.3-0.69 142.21-0.59L142.21-0.59Q141.83-0.22 141.29-0.05 140.74 0.12 140.15 0.19 139.55 0.25 138.96 0.23 138.37 0.22 137.87 0.22L137.87 0.22Q137.77 0.22 137.74 0.19ZM151.08-0.19L145.05-15.4Q144.92-15.71 144.61-15.84 144.3-15.96 143.97-16.01 143.64-16.05 143.36-16.1 143.08-16.15 143.02-16.34L143.02-16.34Q142.96-16.49 143.05-16.57 143.14-16.65 143.3-16.65L143.3-16.65 151.8-16.65Q152.14-16.65 152.08-16.4 152.01-16.15 151.76-16.15L151.76-16.15 150.11-16.15Q150.02-16.15 149.94-15.96 149.86-15.77 149.83-15.71L149.83-15.71Q149.7-15.46 149.7-15.18L149.7-15.18Q149.7-14.87 149.92-14.21 150.14-13.56 150.42-12.85 150.7-12.15 150.98-11.51 151.26-10.87 151.39-10.56L151.39-10.56Q151.7-9.84 151.98-9.15 152.26-8.46 152.58-7.78L152.58-7.78Q152.76-7.31 153.03-6.72 153.3-6.12 153.53-5.5 153.76-4.87 153.9-4.25 154.04-3.62 154.01-3.12L154.01-3.12Q154.01-2.94 153.87-2.44 153.73-1.94 153.58-1.39 153.42-0.84 153.23-0.42 153.05 0 152.95 0L152.95 0 151.39 0Q151.17 0 151.08-0.19L151.08-0.19ZM157.64-16.15L155.92-16.15Q155.67-16.15 155.67-16.4 155.67-16.65 155.92-16.65L155.92-16.65 160.88-16.65Q161.07-16.65 161.07-16.46L161.07-16.46Q161.07-16.24 160.88-16.21L160.88-16.21 159.2-15.84Q159.14-15.8 158.96-15.51 158.79-15.21 158.76-15.15L158.76-15.15 154.83-5Q154.79-4.97 154.58-4.95 154.36-4.93 154.39-5.12L154.39-5.12Q154.39-5.25 154.48-5.51 154.58-5.78 154.67-6.07 154.76-6.37 154.87-6.64 154.98-6.9 155.04-7.06L155.04-7.06Q155.17-7.4 155.48-8.11 155.79-8.81 156.15-9.7 156.51-10.59 156.89-11.56 157.26-12.52 157.56-13.38 157.86-14.24 157.98-14.91 158.11-15.59 157.98-15.87L157.98-15.87Q157.92-15.93 157.82-16.04 157.73-16.15 157.64-16.15L157.64-16.15ZM174.16-10.78L174.16-10.78Q174.19-10.81 174.19-10.9L174.19-10.9Q174.19-11.62 174.22-12.29 174.25-12.96 174.1-13.68L174.1-13.68Q173.85-14.87 173.19-15.66 172.54-16.46 171.22-16.46L171.22-16.46Q170.19-16.46 169.51-15.71L169.51-15.71Q168.85-15.05 168.49-14.13 168.13-13.21 167.96-12.21 167.79-11.21 167.76-10.21 167.73-9.21 167.73-8.34L167.73-8.34Q167.73-7.06 168.12-5.84 168.51-4.62 169.26-3.62L169.26-3.62Q169.85-2.84 170.65-2.31 171.44-1.78 172.33-1.56 173.22-1.34 174.17-1.44 175.13-1.53 176-2L176-2Q176.44-2.25 176.81-2.53 177.19-2.81 177.63-3.06L177.63-3.06Q177.88-3.22 178-3.23 178.13-3.25 178.09-2.84L178.09-2.84Q178.06-2.53 177.83-2.2 177.6-1.87 177.38-1.66L177.38-1.66Q176.56-0.91 175.38-0.45 174.19 0 172.88 0.14 171.57 0.28 170.29 0.14 169.01 0 168.01-0.41L168.01-0.41Q166.01-1.22 164.8-2.76 163.6-4.31 163.17-6.17 162.73-8.03 163.06-9.96 163.38-11.9 164.45-13.48 165.51-15.05 167.3-16.07 169.1-17.08 171.6-17.08L171.6-17.08Q173.22-17.08 174.64-16.57 176.06-16.05 177.06-14.71L177.06-14.71Q177.44-14.21 177.75-13.49 178.06-12.77 178.27-11.99 178.47-11.21 178.58-10.43 178.69-9.65 178.63-9.06L178.63-9.06Q178.59-8.9 178.55-8.82 178.5-8.75 178.31-8.75L178.31-8.75 168.97-8.75Q168.79-8.75 168.68-8.84 168.57-8.93 168.57-9.06 168.57-9.18 168.68-9.28 168.79-9.37 169.07-9.37L169.07-9.37 172.32-9.37Q173.07-9.37 173.47-9.74 173.88-10.12 174.16-10.78Z" transform="translate(-0.8100000023841858, 25.430416107177734)"></path></g> <!----> <!----> <!----> <!----> <!----> <!----> <!----></g></g> <!----></g></g><defs v-gra="od"></defs></svg>